<?xml version="1.0" standalone="no"?>
<!DOCTYPE svg PUBLIC "-//W3C//DTD SVG 1.1//EN" "http://www.w3.org/Graphics/SVG/1.1/DTD/svg11.dtd" >
<svg xmlns="http://www.w3.org/2000/svg">
<metadata>
This is a custom SVG webfont generated by Font Squirrel.
</metadata>
<defs>
<font id="GROBOLDRegular" horiz-adv-x="1234" >
<font-face units-per-em="2048" ascent="1638" descent="-410" />
<missing-glyph horiz-adv-x="614" />
<glyph unicode=" "  horiz-adv-x="614" />
<glyph unicode="&#x09;" horiz-adv-x="614" />
<glyph unicode="&#xa0;" horiz-adv-x="614" />
<glyph unicode="!" horiz-adv-x="1585" d="M621.5 164q-11.5 47 5.5 90q14 43 51 73.5t89 45t113.5 11.5t125.5 -24q63 -23 113 -58.5t82 -78.5t42 -90t-4 -90t-51 -72.5t-89 -45t-113.5 -13.5t-125.5 25q-63 23 -113.5 58.5t-82 78.5t-43 90zM715 463l108 1417l607 25l-177 -1489q-53 37 -121.5 60.5t-146.5 29.5 q-76 6 -144.5 -5t-125.5 -38z" />
<glyph unicode="#" horiz-adv-x="2009" d="M14 379h113v586l17 -6q17 -5 46 -21q6 158 73 295t176.5 239.5t255 161t311.5 58.5q213 0 391 -95.5t289 -255.5v-77q-49 86 -121 157.5t-160 122.5t-188.5 79t-210.5 28q-160 0 -300.5 -58.5t-245 -158t-166 -233.5t-63.5 -288q14 -10 28.5 -23t31.5 -30q6 -6 8 -10 q0 14 -1 27.5t-1 27.5q0 141 55.5 265t151.5 217.5t225 146.5t277 53q121 0 229 -37t197.5 -102.5t155 -154.5t98.5 -195v-68q-23 115 -84.5 214t-151.5 172t-203.5 114t-240.5 41q-143 0 -269.5 -52.5t-220.5 -143.5t-148.5 -212t-54.5 -258q0 -41 6 -80q31 -47 49.5 -102 t18.5 -115q10 -20 21.5 -38.5t23.5 -37.5v-26q-27 37 -47 72q-4 -49 -18 -93q14 -23 30.5 -42t34.5 -40v-47v-10q-43 41 -86 96q-16 -33 -41 -63q82 -23 82 -100v-37q0 -51 -34 -81t-89 -30h-137v166h-70zM207 217h65q35 0 35 35v12q0 33 -35 33h-65v-80zM207 379l26 27 q37 35 55.5 86t18.5 106q0 76 -25.5 125t-48.5 76q-10 10 -19 18t-7 8v-73q23 -29 44 -76t23 -117v-2q-47 86 -67 184v-362zM461 391v600l86 19v-602q2 -31 15 -37l13 -6l25 2q55 14 55 77v598l88 33v-600q0 -66 -37.5 -117t-105.5 -71q-66 -18 -102.5 10t-36.5 94z M484 154.5q-5 21.5 8 40.5q12 16 34.5 20t42.5 -8q23 -16 27 -45h-12q-4 23 -21 35q-16 10 -32.5 7t-24.5 -18q-10 -14 -7 -30.5t19 -26.5q10 -8 24.5 -7t22.5 11l-24 14l6 11l37 -25l-2 -2q-10 -16 -31 -20.5t-41 8.5q-21 14 -26 35.5zM557 248q4 2 6 2q4 0 8 2 q10 4 18.5 7t16.5 7q88 -51 188.5 -78.5t211.5 -27.5q141 0 268 46t228.5 127t170 191.5t94.5 239.5q4 -2 17 -6v-39v-41v-14q-41 -119 -116 -218.5t-176 -172t-225 -113.5t-261 -41q-125 0 -238 35t-211 94zM586 1327q0 74 80 129q18 12 39.5 21.5t40 14.5t29.5 7l11 2v-31 q2 0 -25.5 -8t-51.5 -24q-66 -41 -66 -107q0 -63 70 -94l16 -6v104l57 8v-155l-10 -1q-10 -1 -27.5 0t-38 5t-40.5 12q-84 35 -84 123zM664 309q4 4 5 6t5 7q74 -39 156.5 -60.5t175.5 -21.5q102 0 197 27.5t176 77.5t144.5 120t106.5 153l-86 -10v119q0 23 -8 29t-31 2 l-73 -15v-153l-89 -23v154l-75 -19l-51 60l7 2l36 10q29 8 83 25v540h29q25 0 69 -11t83 -40q109 -80 108 -223q0 -119 -92 -223q57 0 80 -31q8 -10 10 -23.5t2 -48.5v-116q23 49 39.5 102t22.5 109q2 -8 5 -14.5t7 -12.5q-18 -123 -79.5 -229.5t-155 -185.5t-213 -123 t-252.5 -44q-94 0 -180 21.5t-162 62.5zM672 39l33 92l16 -4q6 -4 13 -8t11 -8q12 -12 7 -27q-8 -23 -35 -16l18 -54l-16 4l-17 54l-4 2l-14 -41zM702 82l3 -4q10 -4 21 -3t15 13q4 10 -5 16.5t-19 10.5h-2zM770 588l127 49v498l90 39v-500l111 45v502l88 34v-733l-88 -30 v151l-111 -43v-151l-90 -37v149l-76 -31l-8 10q-8 9 -43 48zM844 -14l65 96l41 -111l-14 2l-10 29l-52 4l-16 -20h-14zM862 1262v227h56v-213q0 -25 34 -12q35 6 35 28v197h57v-178q0 -23 -24.5 -41.5t-67.5 -32.5q-90 -28 -90 25zM883 18l39 -4l-17 41zM1059 70l16 2 q27 2 36 -4.5t11 -20.5q2 -29 -37 -33h-6l2 -41l-12 -2zM1075 61l2 -34h4q10 0 20.5 4t8.5 14q-2 12 -11 14t-20 2h-4zM1104 1370v119h57v-109q0 -16 37 -10q35 4 35 16v103h59v-94q0 -27 -65 -39v-39l-58 -12v41q-65 -5 -65 24zM1221 92l12 6l12 -39l51 17l-10 39l10 2 l31 -94l-12 -5l-15 45l-51 -14l15 -47l-15 -2zM1399 162l12 8l45 -88l-12 -8zM1432 821q0 -2 11 8.5t21 22.5q80 86 80 195q0 63 -25.5 103t-50.5 58q-16 14 -26 20l-10 5v-412zM1513.5 229.5q4.5 10.5 14.5 20.5q14 10 31 4l-5 -12q-10 2 -20 -2q-12 -12 -6 -23q8 -8 22 -2 l6 2q12 4 23 4q10 0 18 -10q10 -10 6 -22.5t-14 -22.5q-25 -16 -45 0l10 10q10 -12 29 -2q14 14 4 29q-4 6 -12 6t-14 -2l-9 -4q-10 -2 -20 -2q-8 0 -14 8q-9 10 -4.5 20.5zM1624 330l43 51l6 -6l-16 -21l67 -57l-10 -10l-65 57l-19 -18zM1716 926v454l86 6v-307 q20 -80 21 -174v-18q16 -12 37 -13q53 4 53 62v455h88v-455q0 -113 -98 -139v-164h-88v162q-99 25 -99 131zM1724 465l29 53l10 -8l-22 -37l24 -14l23 37l8 -4l-20 -39l32 -19l23 41l8 -8l-29 -53z" />
<glyph unicode="$" horiz-adv-x="1312" d="M10 109l156 436q31 -12 74 -31.5t92 -36t101 -29t104 -10.5q76 4 128 26.5t50 76.5q-2 35 -35 53t-82 37q-31 8 -80 22.5t-106.5 39t-116.5 59t-107.5 84t-79 115t-32.5 147.5q-4 117 31.5 214t99 170.5t153 125t193.5 78.5v200l391 15l-51 -191q92 -6 180 -24.5 t166 -51.5l-121 -473q-82 35 -149.5 58.5t-157.5 35.5q-27 4 -70 5q-43 0 -86 -8.5t-73.5 -29t-32.5 -57.5q0 -16 15.5 -25.5t37 -15.5t45 -9t35.5 -5q59 -12 93 -20l34 -9q57 -12 111 -34q63 -27 129.5 -64t121 -91t91 -129t41.5 -177q4 -117 -31 -213.5t-101.5 -169 t-162 -122.5t-207.5 -77v-205l-391 -14l53 192q-119 10 -238 47.5t-215 84.5z" />
<glyph unicode="%" horiz-adv-x="1531" d="M474 1329q-1 -86 38 -172q35 -78 93.5 -108.5t119.5 -28.5t117.5 30.5t89.5 73.5q45 63 65.5 130t22.5 131.5t-11.5 122t-37.5 104.5q-12 25 -37 48t-58.5 37.5t-73.5 16.5t-85 -14q-70 -27 -125 -82t-86 -129t-32 -160zM524 57l789 1661l188 -49l-821 -1679zM662 1313 q-4 61 14 105t43.5 65.5t53.5 16.5t44 -42q12 -29 14.5 -72t-22.5 -106q-12 -31 -35.5 -51.5t-48.5 -20.5q-23 0 -42 25t-21 80zM959.5 299q-1.5 -86 39.5 -172q35 -78 93.5 -108.5t120 -28.5t117.5 30.5t89 73.5q45 61 65.5 128t21.5 131.5t-12 121.5t-38 105 q-12 25 -36.5 48t-57.5 38.5t-73 17.5t-85 -14q-70 -27 -126 -82.5t-86.5 -129t-32 -159.5zM1149 283q-4 61 14.5 104t44 64.5t53 17.5t44.5 -41q10 -29 13 -72t-22 -108q-12 -31 -35.5 -51.5t-48.5 -20.5q-23 0 -42 25t-21 82z" />
<glyph unicode="&#x26;" horiz-adv-x="1730" d="M-23 422q-6 90 18.5 166t74 134t117 99t147.5 64q-76 59 -122 130.5t-54 170.5q-10 121 37 211t127.5 150.5t184 94t208.5 41.5q98 8 205.5 -7t198.5 -59t153.5 -122t73.5 -192q6 -72 -12.5 -142.5t-56.5 -132t-92.5 -110t-119.5 -72.5l160 -139q72 55 125 125.5 t106 142.5l338 -326l-240 -215l177 -137l-437 -307l-137 182q-117 -92 -236.5 -136t-267.5 -54q-121 -10 -237.5 5t-210.5 65t-156 140.5t-72 229.5zM512 504q4 -63 50 -90t106 -21q47 4 80.5 19.5t72.5 36.5l-223 188q-33 -25 -61.5 -55.5t-24.5 -77.5zM686 1217 q2 -35 30.5 -71t59.5 -50q18 12 36.5 27.5t34 35t24 41t6.5 43.5q-2 35 -31 63.5t-66 24.5q-45 -4 -71.5 -36.5t-22.5 -77.5z" />
<glyph unicode="'" horiz-adv-x="522" d="M111 1604l172 413l157 -129l-243 -313z" />
<glyph unicode="(" horiz-adv-x="827" d="M168 733l3 88q3 88 43 242t135 359.5t278 443.5l102 -86q-147 -225 -222 -418t-105.5 -332t-32.5 -218l-2 -79l10 -75q10 -75 48 -193.5t113.5 -263t206.5 -283.5l-100 -72q-133 115 -222 241t-139.5 237.5t-77 207t-32.5 146.5t-6 55z" />
<glyph unicode=")" horiz-adv-x="790" d="M80 1794l100 72q133 -115 222.5 -241t139.5 -237.5t76.5 -207t32.5 -146.5t6 -55l-3 -88q-3 -88 -43 -240.5t-135 -359.5t-277 -445l-103 86q147 227 222 419t106 331t33 218l2 79l-10 75q-10 75 -48.5 193.5t-114 263t-206.5 283.5z" />
<glyph unicode="+" horiz-adv-x="1581" d="M104 543l39 387l400 14l4 492l454 65l-30 -543l489 19l-39 -426l-475 -4l-22 -389l-387 -39l4 426z" />
<glyph unicode="," horiz-adv-x="485" d="M59 -178l172 416l158 -129l-244 -316z" />
<glyph unicode="-" horiz-adv-x="933" d="M135 590l19 235l649 29l-21 -274z" />
<glyph unicode="." horiz-adv-x="448" d="M82 63l14 175l215 -13l-41 -215z" />
<glyph unicode="/" horiz-adv-x="1056" d="M47 57l789 1661l186 -49l-821 -1679z" />
<glyph unicode="0" horiz-adv-x="1384" d="M22.5 859q18.5 136 70.5 260t131 226.5t180.5 180.5t218.5 121q111 43 212 35.5t183 -44t143.5 -95t91.5 -120.5q59 -115 95 -261t32 -306t-55 -325.5t-164 -321.5q-55 -74 -137 -133.5t-179 -93t-201.5 -37.5t-204 29.5t-184.5 110.5t-144 206q-66 143 -86.5 287.5 t-2 280.5zM483 680q8 -141 55.5 -201.5t106.5 -60.5q61 0 119.5 49t89.5 127q31 80 43 146.5t11 122t-11 100.5t-25 79q-39 90 -107.5 101.5t-134 -40.5t-111.5 -161.5t-36 -261.5z" />
<glyph unicode="1" horiz-adv-x="1060" d="M-6 1257l403 383l566 58l-78 -1725l-502 66l-6 1114l-182 -154z" />
<glyph unicode="2" horiz-adv-x="1380" d="M-20 1339q190 180 356 271.5t300 116t243.5 2t188.5 -71.5t134 -103.5t80 -92.5t27 -40q84 -150 59 -279.5t-117 -242.5t-227 -210t-272 -183l555 63l-13 -518l-1214 -61l-2 313q-14 51 14.5 112.5t83.5 128t129 135.5t152 136.5t150.5 130t125.5 114.5t79 93t9 64 q-25 33 -94.5 14t-154.5 -65t-172 -107.5t-146 -114.5z" />
<glyph unicode="3" horiz-adv-x="1306" d="M-10 244l301 430q147 -106 239.5 -140t143.5 -31t69 22l19 20q0 2 8 23.5t4 54t-33.5 61.5t-103.5 44t-205 3l23 350q139 -12 197.5 7.5t71.5 49t1 55.5l-12 26l-22 20q-22 20 -74 25.5t-141 -20t-222 -118.5l-201 373q201 141 373 189.5t301 39t222 -49.5t137 -75.5 t49 -39.5q2 -2 30.5 -38t58 -101.5t33 -145.5t-47 -170t-181.5 -174q135 -80 196.5 -179.5t74 -194.5t-4 -179t-37 -130t-22.5 -50l-28 -40q-28 -40 -88 -88t-157.5 -86t-235.5 -33t-321.5 69.5t-414.5 220.5z" />
<glyph unicode="4" d="M-10 1030l686 684l502 -155l-766 -721h209l6 118h471l-21 -120l183 32l-29 -475l-182 -2l-23 -375l-522 -22l37 393l-508 -39z" />
<glyph unicode="5" horiz-adv-x="1169" d="M6 479q160 -35 269.5 -25.5t174 43t100.5 76.5t46 73t10 32q8 39 -15.5 62.5t-67.5 34.5t-102.5 12t-119.5 -6t-122.5 -23.5t-108.5 -36.5l69 883l973 47l10 -408l-622 6l-51 -145q111 31 233.5 20.5t227 -59.5t176 -135t79.5 -209v-45q0 -41 -15 -112.5t-52 -153.5 t-110 -163t-188.5 -142.5t-289.5 -92t-412 -12.5z" />
<glyph unicode="6" horiz-adv-x="1148" d="M-34 595q3 140 70.5 313t223.5 385t426 456l313 -303q-80 -63 -148.5 -130t-118.5 -122t-79 -90l-28 -35q66 35 128 36t113.5 -16.5t92 -44t61 -46t22.5 -21.5q125 -135 141.5 -276.5t-41 -269.5t-170 -231.5t-246.5 -163t-271.5 -62.5t-241.5 69q-2 2 -40 35t-88 102.5 t-86 172t-33 242.5zM416 479q25 -59 90 -71.5t135 26.5q68 41 97.5 108.5t4.5 127.5q-25 59 -91 71.5t-134 -26.5q-68 -41 -97.5 -109t-4.5 -127z" />
<glyph unicode="7" horiz-adv-x="1103" d="M-16 1626l1163 64l-182 -627l133 4l-66 -373l-145 -6l-168 -696l-563 65l192 615l-164 -6l23 364l256 14l80 195l-531 -63z" />
<glyph unicode="8" horiz-adv-x="1236" d="M-8 385q-10 90 13.5 174t75.5 159t128 136q-43 39 -70 90q-68 125 -55.5 246t84.5 221t190.5 174t264.5 105q92 18 171.5 11t144.5 -30.5t111 -58.5t68 -72q37 -59 58.5 -131t18.5 -150.5t-35 -160.5t-99 -160q47 -33 74 -76q45 -74 68.5 -166t11 -192.5t-67.5 -201.5 t-166 -193q-53 -45 -130 -78t-165 -50.5t-181 -15.5t-179 27.5t-158 77t-117 133.5q-49 92 -59 182zM430 436q0 -76 32 -109.5t76 -35.5t89 22.5t71 65.5q53 82 54 139q0 57 -19 96q-25 49 -75 58.5t-100 -16t-89 -83t-39 -137.5zM500 1157q0 -57 24.5 -82.5t57 -26.5 t66.5 17t54 49q39 61 39 105q0 45 -12 73q-18 37 -56 43t-76 -13t-67.5 -61.5t-29.5 -103.5z" />
<glyph unicode="9" horiz-adv-x="1163" d="M-23.5 1117.5q15.5 101.5 71.5 194.5t137 168.5t180.5 130t202 79t200.5 13.5t176 -67q2 -2 40 -34.5t88 -102t86 -172t34 -243t-69.5 -313.5t-223.5 -385t-426 -456l-315 306q80 63 149.5 129.5t119.5 121t79 88.5l29 35q-66 -35 -128.5 -36t-113.5 16.5t-92 44.5 t-61.5 46t-22.5 21q-94 100 -125 207t-15.5 208.5zM416 1010q25 -57 90 -70.5t133 27.5q68 39 98.5 107.5t5.5 125.5q-27 59 -92 71.5t-133 -26.5q-68 -41 -98.5 -108.5t-3.5 -126.5z" />
<glyph unicode=":" horiz-adv-x="364" d="M14 63l13 175l215 -13l-41 -215zM94 768l15 193l237 -15l-45 -237z" />
<glyph unicode=";" horiz-adv-x="428" d="M-25 -178l172 416l158 -129l-244 -316zM174 397l12 174l215 -12l-39 -215z" />
<glyph unicode="=" horiz-adv-x="1419" d="M6 49l39 387l1317 47l-39 -426zM55 678l37 387l1317 47l-39 -424z" />
<glyph unicode="?" horiz-adv-x="1484" d="M2 1505q207 197 384 299.5t319.5 134t257 13t196.5 -64.5t137.5 -99t81 -91t27.5 -40q72 -127 62.5 -239.5t-72 -213t-165 -188.5t-219 -168t-232 -150.5t-206 -135t-139.5 -124t-33 -114.5l-335 260q-18 51 13.5 110.5t92.5 123t145 128t173.5 128t173.5 121.5 t146 107.5t93 88.5t15 61q-16 23 -53.5 20.5t-87.5 -20.5t-108.5 -49t-115.5 -69t-110.5 -79t-92.5 -75zM351 143q11 47 43 90t82 78t114 58q63 23 124.5 24.5t113 -12.5t88 -45t53.5 -74q14 -43 3 -90t-43 -90t-82 -79t-114 -56q-63 -23 -124.5 -25t-113 12.5t-89 45 t-52.5 73.5q-14 43 -3 90z" />
<glyph unicode="@" horiz-adv-x="1601" d="M6 834q0 182 64.5 337.5t177 270t264.5 179.5t326 65q143 0 272 -45.5t238 -143.5q111 -98 177 -222t66 -278q0 -135 -34.5 -251.5t-100.5 -202.5q-78 -104 -167 -148.5t-167 -40.5q-47 2 -85 37t-50 86q-43 -47 -111.5 -85t-166.5 -38q-72 0 -138.5 32t-118 85t-81 126 t-29.5 155q0 98 32 191t89 166t139 116t184 43q84 0 149.5 -23.5t115.5 -93.5l16 70h215l-108 -531q-4 -18 -9.5 -43.5t-5.5 -48.5q0 -20 8.5 -34.5t32.5 -12.5q29 2 62.5 34.5t63.5 85t50.5 118t24.5 135.5q6 135 -35 237.5t-119 170t-185.5 102t-232.5 34.5 q-137 0 -248.5 -46t-191.5 -130t-123 -200.5t-43 -257.5q0 -147 48 -265t134.5 -199t204 -124t256.5 -43q137 0 237.5 18.5t153.5 50.5l-32 -204q-57 -31 -90 -47.5t-67 -23.5t-82 -9t-136 -2q-176 0 -329.5 63.5t-268.5 177t-180.5 268.5t-65.5 339zM596 782 q0 -39 11 -74.5t31.5 -63.5t51.5 -44t72 -16q49 0 86 21.5t61.5 56t38 75.5t17.5 82q12 94 -32 151.5t-124 57.5q-47 0 -86 -21.5t-67.5 -57.5t-44 -80t-15.5 -87z" />
<glyph unicode="A" horiz-adv-x="1740" d="M-102 137l911 1651l1034 -1573l-643 -244l-172 287l-430 -14l-84 -307zM705 569l243 43l-102 279z" />
<glyph unicode="B" horiz-adv-x="1411" d="M66 1599q289 55 476 74q178 17 284 18h12q109 -1 151 -11l43 -9l42 -19q42 -19 95.5 -57.5t101.5 -96.5t59 -135q2 -16 3 -33q0 -64 -34 -140q-42 -96 -166 -213q172 -90 244.5 -193.5t79.5 -203.5q1 -16 1 -32q0 -83 -32 -161q-38 -92 -88 -161.5t-92 -111.5l-42 -42 q-2 -2 -27.5 -17.5t-100.5 -37t-199 -35.5q-117 -13 -298 -14h-26q-199 1 -473 32zM582 635l26 -215q38 -3 70 -4q64 0 105 14q62 20 90 50t33 57l5 26q0 2 -3 22.5t-18.5 48.5t-49.5 44q-25 12 -66 12q-15 0 -32 -2q-62 -6 -160 -53zM602 997q20 -3 39 -3q38 0 65 15 q40 22 61 51.5t29 54.5l7 26q1 25 1 26q0 22 -14 42q-15 22 -57 29q-7 1 -16 1q-40 0 -107 -27z" />
<glyph unicode="C" horiz-adv-x="1531" d="M-29 631q-4 42 -4 83q0 110 28 220q38 152 106.5 285t161.5 239.5t190 169.5l41 23q41 23 112.5 44t168.5 30q24 2 50 3q76 0 161 -21q114 -28 238 -103.5t246 -223.5l-358 -440q-111 117 -193 150q-54 21 -99 21q-24 0 -45 -6q-60 -17 -101 -71.5t-65.5 -111 t-35.5 -101.5l-10 -45q0 -4 9.5 -53t43 -109.5t96.5 -89.5q27 -13 63 -12q46 0 107 20q108 37 265 183l399 -426q-31 -59 -106.5 -121t-180 -113t-229.5 -84.5t-255 -39.5q-18 -1 -35 0q-112 0 -221 28q-126 33 -232 115q-154 119 -228 262t-88 295z" />
<glyph unicode="D" horiz-adv-x="1474" d="M86 1602q371 72 548 93l177 21q69 11 131 11q94 0 174 -24q133 -40 225.5 -128t141.5 -215t55 -273q1 -20 1 -40q0 -126 -33 -260q-38 -155 -123 -299t-217 -268t-312 -208l-36 -11q-36 -11 -121 -20q-70 -8 -176 -8h-50q-141 2 -352 29zM614 467q117 27 190 81 t109.5 112.5t52 116t15.5 89.5v37q0 4 -6 40t-26.5 85t-57.5 81q-31 27 -81 27q-10 0 -19 -1q-63 -6 -156 -80z" />
<glyph unicode="E" horiz-adv-x="1212" d="M72 1585l1130 84l-63 -518l-514 -23l-2 -98l372 27l-43 -359l-342 -26l-4 -113l586 55l-10 -565l-1096 -59z" />
<glyph unicode="F" horiz-adv-x="1118" d="M76 1587l1132 82l-63 -532l-516 -21l-23 -160l430 27l29 -430l-432 -27l-21 -524l-522 -12z" />
<glyph unicode="G" horiz-adv-x="1669" d="M-10 628q-2 35 -3 69q0 116 27 226q35 142 112 269t184.5 228.5t240.5 173t280 102.5q4 0 45 5q22 3 55 3q27 0 60 -2q76 -4 170 -29.5t205 -86t219 -167.5l-383 -403q-29 70 -91 101.5t-140 31.5q-76 0 -158 -33t-149.5 -92t-111.5 -145t-44 -195v-11q0 -92 32 -150 q34 -60 86 -87q47 -24 102 -24q6 0 13 1q63 3 125 30.5t112 73.5t75 106l-291 -56l33 330l893 113q7 -49 7 -99q0 -79 -19 -156q-30 -126 -82 -230.5t-109.5 -187.5t-95 -126t-41.5 -47q-74 -74 -179.5 -129t-226.5 -84q-109 -26 -225 -26h-25q-129 3 -245.5 45t-216 128 t-160.5 224q-70 153 -80 306z" />
<glyph unicode="H" horiz-adv-x="1476" d="M27 1612l598 57l-72 -751l303 22l25 715l583 28l-166 -1581l-475 -57l27 451l-215 -31l-21 -471l-510 -10z" />
<glyph unicode="I" horiz-adv-x="759" d="M78 -35l20 1647l602 71l-84 -1656z" />
<glyph unicode="J" horiz-adv-x="1189" d="M-4 567l450 144q-20 -101 -19 -163q0 -66 12 -96q11 -28 27.5 -34t28 -2t13.5 4q2 2 20.5 18.5t36.5 59.5q15 35 15 86v24l-68 981l586 103q12 -328 17 -554.5t6 -360.5q0 -34 1 -63q0 -89 -3 -144q-3 -73 -5 -94l-2 -21q-12 -51 -42 -119t-80 -135.5t-121.5 -127 t-168.5 -91.5q-91 -31 -203 -31h-14q-121 2 -268 57l-43 24q-43 24 -90 86t-78 171q-18 63 -18 145q0 61 10 133z" />
<glyph unicode="K" horiz-adv-x="1302" d="M63 1612l601 71l-7 -370l330 456l402 -473l-572 -530l504 -424l-287 -430l-397 375l-4 -260l-537 -62z" />
<glyph unicode="L" horiz-adv-x="1146" d="M82 1602l616 86l-53 -1153l502 104l24 -576l-1075 -108z" />
<glyph unicode="M" horiz-adv-x="1808" d="M-88 252l520 1520l502 -633l483 499l502 -1380l-494 -403l-223 665l-278 -487l-336 516l-199 -606z" />
<glyph unicode="N" horiz-adv-x="1560" d="M78 -35l26 1704l783 -649l18 678l611 -41l-95 -1563l-784 391l29 -483z" />
<glyph unicode="O" horiz-adv-x="1564" d="M-50 629q-4 44 -4 86q0 105 23 206q33 140 107 265t178 226t234 175t278 113q101 25 192 25q35 0 69 -4q122 -13 220.5 -58t167 -109.5t103.5 -130.5q63 -123 95 -277q21 -100 20 -205q0 -57 -6 -116q-17 -166 -93 -334.5t-225 -322.5q-74 -74 -179.5 -129t-226.5 -84 q-113 -27 -232 -27h-17q-128 2 -245.5 44t-216 128t-159.5 224q-70 153 -83 305zM444 690v-12q0 -90 28 -148q30 -61 76 -90.5t105 -32.5q8 0 16 -1q52 0 102 18q58 20 109.5 60t86.5 94q51 80 74.5 148.5t28.5 125.5q2 19 2 37q0 36 -7 67q-10 47 -29 84q-31 66 -87 95 q-49 25 -105 25q-8 0 -17 -1q-66 -4 -133 -38t-122.5 -94t-91.5 -146.5t-36 -190.5z" />
<glyph unicode="P" horiz-adv-x="1310" d="M82 1602q389 45 569 62l180 17q52 6 101 6q108 0 191 -29q120 -42 190.5 -124t95.5 -196q13 -62 13 -127q0 -54 -9 -110q-20 -124 -81.5 -250t-163 -233.5t-239.5 -186.5t-311 -112l-8 -368l-495 51zM563 815q74 16 128 47t91 66t57.5 66.5t24.5 49.5q2 21 3 32 q0 18 -7 40q-8 29 -35 48q-25 18 -79 19h-6q-58 -1 -156 -40z" />
<glyph unicode="Q" horiz-adv-x="1585" d="M-58 777q19 222 127.5 408.5t290 321.5t400.5 193q101 25 192 25q35 0 69 -4q122 -13 220 -58t167 -109.5t103 -130.5q59 -115 92 -256q25 -110 24 -225q0 -34 -2 -69q-9 -153 -66.5 -310t-176.5 -305l95 -92l-303 -301l-107 145q-129 -57 -281 -76q-56 -7 -110 -6 q-94 0 -186 20q-144 32 -268 123t-197 253q-86 194 -86 382q0 36 3 71zM438 690q0 -98 29 -159.5t75 -92t104 -32.5q5 0 11 -1q53 0 107 19l-47 63l172 252l106 -104q37 68 54 127q18 63 17 120q0 46 -9 83q-10 41 -27 75q-31 66 -87 95q-49 25 -106 25q-8 0 -16 -1 q-66 -4 -133 -38t-122.5 -94t-91.5 -146.5t-36 -190.5z" />
<glyph unicode="R" horiz-adv-x="1372" d="M68 1602q389 45 569 62l180 17q57 6 108 6q122 0 213 -34q128 -49 194.5 -142.5t75.5 -217.5q2 -21 2 -42q0 -104 -38 -212q-45 -130 -142 -252.5t-241 -213.5l428 -280l-317 -359l-498 367l-6 -350l-496 51zM551 815q74 16 128 47t91 66t56.5 66.5t23.5 49.5q3 23 2 33 q0 17 -5 39q-7 29 -35 48q-26 18 -79 19h-6q-57 -1 -156 -40z" />
<glyph unicode="S" horiz-adv-x="1210" d="M-47 88l156 438q31 -12 73.5 -31.5t92 -36t102.5 -28.5q46 -11 90 -10h14q76 4 128 26q50 22 51 72q0 38 -36 57q-34 18 -81 37q-31 8 -81 22.5t-107.5 39t-116 59.5t-106.5 84t-80 113.5t-34 148.5v21q0 131 50 234q53 112 145 191t215 121t262 48q31 1 62 1 q98 0 194 -15q127 -19 238 -64l-121 -473q-82 35 -149.5 58.5t-157.5 35.5q-27 4 -72 4q-43 0 -85 -9t-72.5 -29.5t-32.5 -57.5q0 -16 15 -25.5t36.5 -14.5t44 -8l37.5 -5q59 -12 93 -21l34 -8q57 -12 110 -35q63 -29 130 -65.5t121 -90t90 -128t40 -177.5q1 -15 1 -29 q0 -127 -48 -228q-53 -112 -150.5 -188.5t-232.5 -118.5t-291 -48h-26q-59 0 -121 7q-76 9 -149.5 27.5t-143.5 44t-131 54.5z" />
<glyph unicode="T" horiz-adv-x="1067" d="M-6 1108l14 504l1106 94l-53 -487l-246 -29v-1153l-582 -72l31 1170z" />
<glyph unicode="U" horiz-adv-x="1318" d="M14 600v21q0 20 2 85.5t4.5 184.5t8.5 317.5t14 483.5l586 -103l-54 -962q-4 -25 -3 -48q0 -25 5 -47q9 -41 19 -59t12 -20q20 -23 47 -27h4q25 0 56 49q2 2 12 25.5t21 83.5q7 42 7 98q0 22 -1 47l-43 787l555 102q12 -313 17 -503.5t7 -293t2 -135.5v-33v-22 q0 -113 -18 -217q-20 -115 -74.5 -208t-148 -159.5t-232.5 -93.5q-118 -23 -218 -23q-80 0 -148 15q-154 33 -253.5 123t-144.5 228q-41 127 -41 277v27z" />
<glyph unicode="V" horiz-adv-x="1531" d="M-98 1368l583 344l301 -721l351 705l510 -295l-902 -1546z" />
<glyph unicode="W" horiz-adv-x="2017" d="M-86 1493l557 242l217 -670l371 569l309 -536l246 733l471 -338l-508 -1505l-510 522l-526 -664z" />
<glyph unicode="X" horiz-adv-x="1650" d="M-20 1370l456 344l402 -411l379 411l458 -344l-485 -504l496 -506l-392 -419l-465 583l-372 -602l-467 391l467 525z" />
<glyph unicode="Y" horiz-adv-x="1435" d="M-123 1360l440 344l363 -569l393 569l502 -344l-625 -807l-6 -590l-551 74v602z" />
<glyph unicode="Z" horiz-adv-x="1673" d="M-33 1104l115 536l1522 50l-695 -1153l770 94l-102 -596l-1509 -98l497 1206z" />
<glyph unicode="a" d="M-18 422q0 84 32.5 154.5t89 123t133 82t166.5 29.5q94 0 159 -27.5t110 -62.5v61q0 94 -61.5 125t-159.5 31q-90 0 -168 -18.5t-158 -42.5l80 325q98 29 204.5 40t217.5 11q100 0 196.5 -23.5t169 -76.5t115.5 -137q41 -80 41 -196v-11l-23 -774l-411 -35v139h-4 q-55 -78 -140.5 -108.5t-183.5 -30.5q-82 0 -155.5 29.5t-129 85t-88 133.5t-32.5 174zM301 385q8 -47 58 -71q33 -15 79 -15q24 0 51 4q80 12 119 51q32 32 32 69q0 8 -1 15q-6 39 -52 67q-30 18 -78 18q-25 0 -54 -5q-70 -10 -115 -48q-40 -33 -40 -74q0 -5 1 -11z" />
<glyph unicode="b" horiz-adv-x="1310" d="M66 1655l473 37l-19 -533q63 35 122.5 59.5t154.5 24.5q123 0 225 -53t178 -140t118 -198t42 -225q0 -154 -52.5 -272.5t-138.5 -199.5t-199.5 -123t-236.5 -42q-94 0 -177 32.5t-155 69.5v-88h-323zM485 608q-2 -14 -2 -27q0 -23 6 -46q10 -37 35 -65t61 -44t81 -19 q8 -1 16 -1q38 0 78 12q49 14 84 39.5t56.5 58.5t27.5 70q2 14 2 27q0 23 -6 46q-10 37 -35 65t-60.5 45t-79.5 21q-8 1 -16 0q-37 0 -78 -12q-49 -14 -84.5 -40.5t-57.5 -59.5t-28 -70z" />
<glyph unicode="c" horiz-adv-x="1081" d="M-14 602q0 150 51 269.5t142 202.5t216 127t271 44q145 0 252.5 -47t181.5 -96l-271 -354q-29 23 -66.5 37t-76.5 20q-29 5 -57 4h-18q-36 -2 -58 -14q-39 -20 -66.5 -48t-43.5 -61q-14 -31 -14 -66q0 -41 22 -81q41 -82 116 -101q24 -6 48 -5q54 0 112 28l104 53 l279 -369q-51 -45 -109.5 -74.5t-120 -48t-125 -25.5t-122.5 -7q-139 0 -257 47t-205 130t-136 194.5t-49 240.5z" />
<glyph unicode="d" horiz-adv-x="1359" d="M-18 596q0 131 37.5 246.5t109.5 203t177.5 137.5t240.5 50q68 0 131 -17.5t110 -58.5l-18 488l471 36l-8 -1667l-402 -26v116h-4q-49 -66 -134 -95t-171 -29q-104 0 -201.5 41.5t-173 120.5t-120.5 194t-45 260zM391 593v-11q0 -32 10 -60q12 -35 38 -60.5t61 -40.5 t77 -17h4q40 0 85 16t75.5 44t48 61.5t19.5 70.5v10q0 31 -10 62q-12 33 -38 59.5t-60.5 41.5t-76.5 17q-5 0 -10 1q-38 0 -77 -15q-47 -16 -78 -45t-48.5 -62.5t-19.5 -71.5z" />
<glyph unicode="e" horiz-adv-x="1171" d="M-23 584q0 154 49.5 274.5t133.5 204.5t195.5 128t238.5 44q205 0 355.5 -104.5t224.5 -278.5l-613 -461q23 -12 59.5 -16t67.5 -4q94 0 158.5 33.5t118.5 80.5l202 -333q-125 -90 -256 -130t-301 -40q-139 0 -254.5 48t-199.5 130t-131.5 191.5t-47.5 232.5zM406 676 q0 -37 5 -52.5t13 -31.5l305 231q-29 35 -62.5 47.5t-76.5 12.5q-41 0 -75 -17.5t-58.5 -47.5t-37.5 -66.5t-13 -75.5z" />
<glyph unicode="f" horiz-adv-x="851" d="M25 827l65 353h76q0 111 28.5 200.5t87 152t148.5 97.5t215 35q35 0 62.5 -5t58.5 -9l53 -340h-69q-68 0 -104 -35t-36 -96h176v-353h-176l13 -811l-459 -36l2 847h-141z" />
<glyph unicode="g" horiz-adv-x="1212" d="M-18 750q0 84 31.5 173t99 162.5t172 120.5t250.5 47q74 0 129 -10t104 -26l35 215l327 -142l-106 -209q66 -63 99.5 -146t33.5 -177q0 -129 -52 -220.5t-155 -158.5q201 -113 201 -340q0 -109 -47 -194t-134 -142t-209 -87t-272 -30q-180 0 -298.5 31t-192.5 55l199 361 q72 -25 144.5 -41.5t150.5 -16.5q33 0 65.5 4.5t59 17.5t43 36.5t16.5 62.5t-19.5 64.5t-53.5 41t-77 20.5t-88 5q-53 0 -108.5 -15t-102.5 -40l39 123q-135 66 -209.5 179.5t-74.5 275.5zM412 696q10 -53 60 -79q31 -16 68 -15q24 0 52 6q70 14 104 58q27 33 27 72 q0 12 -2 24q-12 53 -63 78q-32 16 -70 15q-23 0 -47 -5q-70 -16 -105 -59q-27 -33 -27 -72q1 -11 3 -23z" />
<glyph unicode="h" horiz-adv-x="1202" d="M63 1632l459 37l-14 -575h4q51 68 118.5 97.5t151.5 29.5q86 0 152.5 -31t112 -86t68.5 -130q22 -69 22 -147v-14l-13 -793l-432 -36v747q0 35 -24.5 59.5t-65.5 24.5q-39 0 -66.5 -23.5t-27.5 -64.5v-745l-430 36z" />
<glyph unicode="i" horiz-adv-x="624" d="M78 1307l2 372l469 21l-25 -361zM82 -20v1181l457 37l-23 -1182z" />
<glyph unicode="j" horiz-adv-x="802" d="M8 -20h47q92 0 139.5 38.5t47.5 133.5v1003l444 37v-1077q0 -127 -32.5 -222.5t-94 -159t-148.5 -96t-194 -32.5h-96zM238 1300l2 375l469 21l-25 -361z" />
<glyph unicode="k" horiz-adv-x="1183" d="M59 1628l465 37l-41 -864h4l195 416l453 -37l-267 -516l308 -474l-426 -210l-267 514h-4l17 -478l-426 -36z" />
<glyph unicode="l" horiz-adv-x="612" d="M72 1628l463 37l-19 -1649l-430 -36z" />
<glyph unicode="m" horiz-adv-x="1824" d="M57 1186l418 37v-189h4q66 88 149 138.5t199 50.5q96 0 161 -30t118 -93q53 55 120.5 89t149.5 34q92 0 163 -32t119 -89.5t73.5 -134t27.5 -164.5l13 -780l-445 -37l12 743q0 39 -28.5 63.5t-75.5 24.5q-49 0 -78 -30.5t-29 -63.5l13 -700l-445 -37l9 739q2 41 -29 66.5 t-80 25.5q-39 0 -73 -24.5t-31 -69.5l20 -739l-430 36z" />
<glyph unicode="n" horiz-adv-x="1210" d="M57 1176l426 34v-157h9q68 92 138 124.5t154 32.5q86 0 151.5 -30.5t111 -86t69 -129t23.5 -159.5v-793l-443 -37l6 746q2 37 -27.5 61.5t-70.5 24.5q-39 0 -70.5 -23.5t-31.5 -64.5l8 -739l-436 30z" />
<glyph unicode="o" horiz-adv-x="1263" d="M-14 522q-8 53 -8 104q0 83 21 159q34 122 108.5 216.5t186.5 155t249 78.5q56 8 110 7q78 0 151 -15q124 -27 222 -95.5t163.5 -177t86.5 -249.5q8 -53 8 -104q0 -83 -21 -160q-34 -122 -109 -215t-186.5 -153.5t-248.5 -78.5q-56 -8 -110 -8q-78 0 -152 16 q-125 27 -223.5 95.5t-164 176t-83.5 248.5zM416 530q35 -80 110 -104q28 -9 60 -9q52 0 112 25q94 41 130 112q19 37 19 76q0 36 -16 75q-35 78 -110 103q-29 10 -61 10q-51 0 -109 -25q-96 -41 -132 -113q-19 -37 -19 -77q0 -36 16 -73z" />
<glyph unicode="p" horiz-adv-x="1308" d="M66 1188l423 37v-140q66 72 136.5 106t169.5 34q123 0 224 -54.5t172 -142.5t109.5 -199.5t38.5 -226.5q0 -123 -41 -236.5t-115.5 -201.5t-179 -141.5t-229.5 -53.5q-63 0 -136 18.5t-130 73.5l12 -407l-432 -37zM481 650q-16 -37 -16 -73q0 -38 18 -73q16 -35 45 -58.5 t67 -33.5q27 -7 57 -8q12 0 25 2q44 4 91 26q92 43 124 121q16 38 16 74q0 37 -17 71q-33 70 -112 94q-28 8 -57 8q-54 0 -114 -28q-94 -45 -127 -122z" />
<glyph unicode="q" horiz-adv-x="1304" d="M-37 610q0 115 39 226.5t109.5 199.5t172 142.5t224.5 54.5q98 0 169 -34t136 -105v139l426 -37l-22 -1571l-435 37l13 408q-57 -53 -130 -71.5t-137 -18.5q-127 0 -230 53t-178 140t-116 200.5t-41 236.5zM411 658q-16 -38 -16 -73q0 -37 17 -73q33 -68 111 -91 q28 -8 58 -8q54 0 113 27q94 45 127 122q16 38 16.5 74.5t-16.5 70.5q-16 35 -46 58t-67 34q-27 7 -58 7q-12 0 -25 -1q-45 -4 -90 -27q-92 -43 -124 -120z" />
<glyph unicode="r" horiz-adv-x="856" d="M55 1188l416 37v-228h4q53 227 307 228q55 0 105 -6l-107 -437q-14 2 -30 2h-41q-86 0 -148.5 -56t-62.5 -177v-526l-430 -37z" />
<glyph unicode="s" horiz-adv-x="913" d="M18 864q0 68 27 133.5t86 118.5t153.5 86t227.5 33q51 0 102.5 -4t97.5 -11.5t85 -14.5t65 -13v-361q-51 12 -100 20.5t-107 8.5q-12 0 -38.5 -1t-53 -6t-47 -17.5t-20.5 -32.5q0 -33 32.5 -49.5t80.5 -30.5t105.5 -34.5t105.5 -58.5t81 -101.5t33 -166.5 q0 -111 -48 -184.5t-127 -117.5t-181.5 -62t-212.5 -18q-86 0 -169 10t-167 33v383q55 -16 111.5 -26.5t121.5 -10.5q29 0 60.5 1t57.5 6t43 17.5t17 36.5q0 31 -31.5 46.5t-77.5 29.5t-101.5 33.5t-101.5 57.5t-78 101.5t-32 165.5z" />
<glyph unicode="t" horiz-adv-x="759" d="M18 842l13 354h96v135l444 201v-336l166 25l-22 -377h-140v-359q0 -61 17.5 -81.5t79.5 -20.5q27 0 43 2t30 6l-71 -405q-33 -4 -62.5 -5t-64.5 -1q-197 0 -306.5 89t-109.5 289v486z" />
<glyph unicode="u" horiz-adv-x="1210" d="M61 330v860l457 37l-12 -758q-2 -49 21.5 -70.5t72.5 -21.5q41 0 66.5 20.5t23.5 69.5l-12 723l471 37l-31 -1219l-377 -16v188h-4q-41 -113 -128 -160t-203 -47q-154 0 -249.5 91.5t-95.5 265.5z" />
<glyph unicode="v" horiz-adv-x="1050" d="M-45 1200l440 35l117 -809h4l135 809l445 -35l-283 -1182l-590 -34z" />
<glyph unicode="w" horiz-adv-x="1613" d="M-53 1206l459 37l120 -573h4l117 530l322 25l121 -561h4l120 579l447 -37l-315 -1181l-424 -33l-115 571h-4l-117 -538l-420 -35z" />
<glyph unicode="x" horiz-adv-x="1140" d="M-39 25l272 600l-253 563l475 37l108 -344h4l95 344l473 -37l-244 -563l285 -600l-492 -35l-117 370h-4l-119 -370z" />
<glyph unicode="y" horiz-adv-x="1028" d="M-31 1149l447 55l137 -450h4l100 450l422 -37l-438 -1544l-463 37l176 481z" />
<glyph unicode="z" horiz-adv-x="995" d="M-31 6l348 756h-292l86 426h854l-344 -756h364l-88 -426h-928z" />
<glyph unicode="&#xaa;" d="M-18 422q0 84 32.5 154.5t89 123t133 82t166.5 29.5q94 0 159 -27.5t110 -62.5v61q0 94 -61.5 125t-159.5 31q-90 0 -168 -18.5t-158 -42.5l80 325q98 29 204.5 40t217.5 11q100 0 196.5 -23.5t169 -76.5t115.5 -137q41 -80 41 -196v-11l-23 -774l-411 -35v139h-4 q-55 -78 -140.5 -108.5t-183.5 -30.5q-82 0 -155.5 29.5t-129 85t-88 133.5t-32.5 174zM301 385q8 -47 58 -71q33 -15 79 -15q24 0 51 4q80 12 119 51q32 32 32 69q0 8 -1 15q-6 39 -52 67q-30 18 -78 18q-25 0 -54 -5q-70 -10 -115 -48q-40 -33 -40 -74q0 -5 1 -11z" />
<glyph unicode="&#xad;" horiz-adv-x="933" d="M135 590l19 235l649 29l-21 -274z" />
<glyph unicode="&#xb0;" horiz-adv-x="540" d="M-28 1290q1 86 32 160t86 129t127 82q43 16 83 14t74 -17.5t58.5 -39t36.5 -47.5q25 -47 38 -104.5t12 -122t-21.5 -131t-65.5 -128.5q-33 -45 -89 -73.5t-117.5 -30.5t-120 28.5t-93.5 108.5q-41 86 -40 172zM160 1274q4 -57 23.5 -81t41.5 -24q25 0 48.5 20.5 t35.5 51.5q25 63 22 106.5t-16 71.5q-16 37 -42.5 41t-53 -17.5t-45 -64.5t-14.5 -104z" />
<glyph unicode="&#xb2;" horiz-adv-x="1380" d="M-20 1339q190 180 356 271.5t300 116t243.5 2t188.5 -71.5t134 -103.5t80 -92.5t27 -40q84 -150 59 -279.5t-117 -242.5t-227 -210t-272 -183l555 63l-13 -518l-1214 -61l-2 313q-14 51 14.5 112.5t83.5 128t129 135.5t152 136.5t150.5 130t125.5 114.5t79 93t9 64 q-25 33 -94.5 14t-154.5 -65t-172 -107.5t-146 -114.5z" />
<glyph unicode="&#xb3;" horiz-adv-x="1306" d="M-10 244l301 430q147 -106 239.5 -140t143.5 -31t69 22l19 20q0 2 8 23.5t4 54t-33.5 61.5t-103.5 44t-205 3l23 350q139 -12 197.5 7.5t71.5 49t1 55.5l-12 26l-22 20q-22 20 -74 25.5t-141 -20t-222 -118.5l-201 373q201 141 373 189.5t301 39t222 -49.5t137 -75.5 t49 -39.5q2 -2 30.5 -38t58 -101.5t33 -145.5t-47 -170t-181.5 -174q135 -80 196.5 -179.5t74 -194.5t-4 -179t-37 -130t-22.5 -50l-28 -40q-28 -40 -88 -88t-157.5 -86t-235.5 -33t-321.5 69.5t-414.5 220.5z" />
<glyph unicode="&#xb9;" horiz-adv-x="1060" d="M-6 1257l403 383l566 58l-78 -1725l-502 66l-6 1114l-182 -154z" />
<glyph unicode="&#xba;" horiz-adv-x="1263" d="M-14 522q-8 53 -8 104q0 83 21 159q34 122 108.5 216.5t186.5 155t249 78.5q56 8 110 7q78 0 151 -15q124 -27 222 -95.5t163.5 -177t86.5 -249.5q8 -53 8 -104q0 -83 -21 -160q-34 -122 -109 -215t-186.5 -153.5t-248.5 -78.5q-56 -8 -110 -8q-78 0 -152 16 q-125 27 -223.5 95.5t-164 176t-83.5 248.5zM416 530q35 -80 110 -104q28 -9 60 -9q52 0 112 25q94 41 130 112q19 37 19 76q0 36 -16 75q-35 78 -110 103q-29 10 -61 10q-51 0 -109 -25q-96 -41 -132 -113q-19 -37 -19 -77q0 -36 16 -73z" />
<glyph unicode="&#xc0;" horiz-adv-x="1669" d="M-145 123l911 1651l1034 -1573l-643 -244l-172 287l-430 -15l-84 -307zM442 1868l158 129l172 -414l-86 -29zM662 555l243 43l-102 279z" />
<glyph unicode="&#xc2;" horiz-adv-x="1658" d="M-147 123l911 1651l1034 -1573l-645 -244l-172 287l-428 -15l-86 -307zM377 1806l334 201l419 -143l-65 -131l-315 149l-269 -178zM659 555l244 43l-104 279z" />
<glyph unicode="&#xc5;" horiz-adv-x="1740" d="M535 2074q1 86 32 160t86 129t127 82q43 16 83 14t74 -17.5t58.5 -39t36.5 -47.5q25 -47 38 -104.5t12 -122t-21.5 -131t-65.5 -128.5q-33 -45 -89 -73.5t-117.5 -30.5t-120 28.5t-93.5 108.5q-41 86 -40 172zM723 2058q4 -57 23.5 -81t41.5 -24q25 0 48.5 20.5 t35.5 51.5q25 63 22 106.5t-16 71.5q-16 37 -42.5 41t-53 -17.5t-45 -64.5t-14.5 -104zM-102 137l911 1651l1034 -1573l-643 -244l-172 287l-430 -14l-84 -307zM705 569l243 43l-102 279z" />
<glyph unicode="&#xc7;" horiz-adv-x="1480" d="M-38 634.5q-13 151.5 24 303.5t106.5 285t162.5 239.5t189 169.5l41 23q41 23 113 44t169 30.5t210 -18.5t236.5 -103.5t246.5 -223.5l-356 -440q-111 117 -194 149.5t-144 15.5t-102 -71.5t-66 -111t-35 -101.5l-10 -45q0 -4 10 -53t44 -109.5t96.5 -89t170 8 t265.5 182.5l397 -426q-29 -53 -95.5 -110.5t-158.5 -106.5t-204.5 -86t-231.5 -49l-111 -271l-309 129l121 156q-72 16 -139.5 46t-128.5 77q-154 119 -229 262t-88 294.5z" />
<glyph unicode="&#xc8;" d="M68 1573l1130 82l-63 -518l-514 -21l-3 -100l373 28l-43 -358l-344 -29l-2 -112l586 55l-10 -565l-1096 -60zM424 1868l158 129l172 -414l-86 -29z" />
<glyph unicode="&#xc9;" horiz-adv-x="1224" d="M66 1585l1130 82l-63 -518l-517 -21v-100l371 29l-41 -359l-344 -28l-2 -113l586 55l-12 -565l-1094 -59zM422 1595l172 414l158 -129l-244 -313z" />
<glyph unicode="&#xca;" horiz-adv-x="1228" d="M63 1573l1131 82l-64 -518l-514 -21l-2 -100l373 28l-43 -358l-344 -29l-2 -112l586 55l-10 -565l-1096 -60zM240 1806l333 201l420 -143l-65 -131l-316 149l-268 -178z" />
<glyph unicode="&#xcb;" horiz-adv-x="1224" d="M57 1573l1131 82l-64 -518l-516 -21v-100l371 28l-41 -358l-344 -29l-2 -112l586 55l-13 -565l-1093 -60zM162 1853l338 25l35 -164q-33 -4 -88.5 -8t-107.5 -6t-90 -3t-38 3q0 2 -2 12t-12 46t-35 95zM625 1743l6 162l319 69l19 -184q-160 -18 -252 -33z" />
<glyph unicode="&#xce;" horiz-adv-x="796" d="M23 1720l333 201l420 -143l-65 -133l-316 151l-268 -180zM94 -27l21 1543l600 71l-84 -1554z" />
<glyph unicode="&#xcf;" horiz-adv-x="835" d="M10 1751l338 25l35 -164q-33 -4 -88 -8.5t-107.5 -6.5t-90.5 -3t-38 3q0 2 -2 12.5t-12 46.5t-35 95zM115 -35l536 60l84 1554l-600 -72zM473 1640l6 162l320 70l18 -184q-160 -18 -252 -33z" />
<glyph unicode="&#xd4;" horiz-adv-x="1552" d="M-57.5 639q-12.5 152 20.5 292t106.5 265t178 226.5t234.5 175t276 110.5q139 37 262 22.5t221 -58.5t167 -108.5t103 -131.5q63 -123 95 -277t15 -319.5t-93 -334.5t-225 -323q-72 -74 -178.5 -129t-227.5 -83.5t-250 -26.5t-245.5 44t-216 128t-160.5 223 q-70 153 -82.5 305zM438 700q0 -98 29 -159.5t75 -91t105.5 -32.5t117.5 17.5t109.5 60.5t86.5 93q51 80 74.5 147.5t28.5 125t-5 105.5t-29 85q-31 63 -87 91.5t-121.5 24.5t-133 -37.5t-123 -94t-91.5 -146t-36 -189.5zM489 1827l334 201l422 -144l-67 -131l-316 150 l-266 -179z" />
<glyph unicode="&#xd9;" horiz-adv-x="1396" d="M51 633l1 35q1 35 4 148.5t8.5 329.5t15.5 576l586 -100l-54 -963q-8 -53 1.5 -94t19.5 -59.5t12 -20.5q20 -23 47 -26.5t60 49.5q2 2 12 25.5t20.5 83t6.5 145.5l-43 786l555 103q8 -248 14 -422t8 -279.5t3 -166t1 -78.5v-21q2 -123 -18.5 -237.5t-74.5 -208 t-147.5 -160t-232.5 -92.5q-211 -43 -364.5 -9.5t-253 123.5t-145.5 228.5t-42 304.5zM647 1882l158 129l172 -414l-86 -28z" />
<glyph unicode="&#xdb;" horiz-adv-x="1380" d="M49 639v20q0 20 2 86t4 185t8.5 316.5t14.5 482.5l586 -101l-54 -962q-8 -53 1.5 -94.5t18.5 -59.5t11 -20q23 -23 49.5 -27t59.5 49q2 2 12 25.5t20.5 82t5.5 144.5l-43 788l553 101q10 -248 15.5 -422t8.5 -279.5t4 -165t1 -77.5v-21q2 -123 -18.5 -237.5t-75.5 -207.5 t-147.5 -160t-231.5 -93q-213 -43 -366.5 -9.5t-253 124t-144.5 228.5t-41 304zM356 1827l334 201l420 -144l-68 -131l-315 150l-266 -179z" />
<glyph unicode="&#xdc;" horiz-adv-x="1390" d="M53 639l1 35q1 35 4 148.5t8.5 329.5t15.5 577l588 -101l-56 -962q-8 -53 1.5 -94.5t19.5 -59.5t12 -20q20 -23 48 -27t61 49q2 2 12 25.5t19.5 83t5.5 145.5l-43 786l555 103q10 -248 15 -422t8 -279.5t3 -167.5v-77v-21q2 -123 -18.5 -237.5t-74.5 -207.5t-146.5 -160 t-231.5 -93q-213 -43 -366.5 -9.5t-253 124t-145.5 228.5t-42 304zM332 1901l338 24l35 -164q-33 -4 -88.5 -8t-107.5 -7t-91 -3q-37 0 -37 4q0 2 -2 12t-12 46.5t-35 95.5zM795 1790l6 162l319 69l19 -184q-160 -18 -252 -33z" />
<glyph unicode="&#xe0;" horiz-adv-x="1202" d="M-18 395q0 -96 32.5 -174t88 -133t129 -85t155.5 -30q100 0 185 31t141 109h4v-140l409 37l23 772q4 123 -39 207t-116.5 137.5t-170 77t-196.5 23.5q-109 0 -216.5 -11.5t-203.5 -39.5l-80 -326q78 25 155.5 43t168.5 18q49 0 90 -6t70.5 -23.5t46 -48t16.5 -77.5v-62 q-45 35 -110.5 62.5t-157.5 27.5q-90 0 -167 -29.5t-134.5 -81.5t-90 -123t-32.5 -155zM293 1540l297 164l229 -338l-162 -84zM303 358q-8 47 37 85t117 49q86 14 132 -13.5t52 -66.5q6 -45 -33 -84t-119 -52q-80 -12 -130 11.5t-56 70.5z" />
<glyph unicode="&#xe2;" horiz-adv-x="1212" d="M-25 408q0 -96 33 -174t88.5 -133.5t128 -85t154.5 -29.5q100 0 185 30.5t141 108.5h4v-139l411 37l23 772q2 123 -41 206.5t-116 137t-169 77t-196 23.5q-111 0 -217.5 -11t-204.5 -40l-80 -326q78 25 156.5 43.5t168.5 18.5q49 0 89 -6.5t70 -23.5t46.5 -48t16.5 -78 v-61q-45 35 -109.5 62.5t-159.5 27.5q-90 0 -166.5 -30t-133 -82t-89.5 -122.5t-33 -154.5zM229 1423l230 224h313l217 -238l-248 -102l-125 172l-129 -172zM295 371q-6 47 39 85t115 48q86 14 132 -13.5t52 -66.5q8 -45 -31 -84t-119 -51t-130 11.5t-58 70.5z" />
<glyph unicode="&#xe4;" horiz-adv-x="1931" d="M-27 410q0 -96 33 -174t88.5 -133.5t129 -85t155.5 -29.5q100 0 185 30.5t141 108.5h4v-139l409 37l23 772q4 123 -39 206.5t-117 137t-170 77t-197 23.5q-109 0 -216 -11t-203 -40l-80 -326q78 25 155.5 43.5t167.5 18.5q49 0 90 -6.5t71 -23.5t46.5 -48t16.5 -78v-61 q-45 35 -111 62.5t-158 27.5q-90 0 -166.5 -30t-134 -82t-90.5 -122.5t-33 -154.5zM258 1610l274 20l23 -219l-272 2zM295 373q-8 47 37 85t117 48q86 14 132 -13.5t52 -66.5q6 -45 -32 -84t-120 -51q-80 -12 -129 11.5t-57 70.5zM690 1610l275 20l22 -219l-272 2z" />
<glyph unicode="&#xe5;" d="M353 1685q1 86 32 160t86 129t127 82q43 16 83 14t74 -17.5t58.5 -39t36.5 -47.5q25 -47 38 -104.5t12 -122t-21.5 -131t-65.5 -128.5q-33 -45 -89 -73.5t-117.5 -30.5t-120 28.5t-93.5 108.5q-41 86 -40 172zM541 1669q4 -57 23.5 -81t41.5 -24q25 0 48.5 20.5 t35.5 51.5q25 63 22 106.5t-16 71.5q-16 37 -42.5 41t-53 -17.5t-45 -64.5t-14.5 -104zM-18 422q0 84 32.5 154.5t89 123t133 82t166.5 29.5q94 0 159 -27.5t110 -62.5v61q0 94 -61.5 125t-159.5 31q-90 0 -168 -18.5t-158 -42.5l80 325q98 29 204.5 40t217.5 11 q100 0 196.5 -23.5t169 -76.5t115.5 -137q41 -80 41 -196v-11l-23 -774l-411 -35v139h-4q-55 -78 -140.5 -108.5t-183.5 -30.5q-82 0 -155.5 29.5t-129 85t-88 133.5t-32.5 174zM301 385q8 -47 58 -71q33 -15 79 -15q24 0 51 4q80 12 119 51q32 32 32 69q0 8 -1 15 q-6 39 -52 67q-30 18 -78 18q-25 0 -54 -5q-70 -10 -115 -48q-40 -33 -40 -74q0 -5 1 -11z" />
<glyph unicode="&#xe7;" horiz-adv-x="1056" d="M-29 575q0 150 51.5 270t142.5 202.5t216 127t270 44.5t254 -47.5t182 -96.5l-270 -352q-29 23 -66.5 37t-76.5 19t-75 3t-58 -14q-39 -20 -67 -48t-43 -60.5t-14 -69.5t21 -76q41 -82 117 -101.5t160 21.5l104 55l277 -368q-92 -82 -204 -116t-222 -40l-60 -133l-186 49 l63 96q-113 20 -208 74.5t-163.5 133.5t-106.5 178t-38 212z" />
<glyph unicode="&#xe8;" horiz-adv-x="1185" d="M-31 573q0 -123 47 -232.5t131 -191t201 -130t256 -48.5q170 0 301 41t256 131l-203 332q-55 -47 -119.5 -81t-156.5 -34q-31 0 -67.5 4.5t-61.5 16.5l614 463q-74 174 -224 278.5t-355 104.5q-127 0 -239.5 -44t-196.5 -129t-133.5 -206t-49.5 -275zM369 1542l297 164 l229 -338l-160 -84zM397 668q0 39 13.5 75.5t38 65.5t59.5 47t76 18q43 0 76.5 -12t62.5 -49l-307 -229q-6 16 -12.5 30.5t-6.5 53.5z" />
<glyph unicode="&#xe9;" horiz-adv-x="1198" d="M-27 571q0 154 49.5 275t133.5 206t196.5 129t239.5 44q205 0 355.5 -104.5t223.5 -278.5l-614 -463q25 -12 61.5 -16.5t67.5 -4.5q92 0 156.5 34t120.5 81l200 -332q-123 -90 -255 -131t-300 -41q-139 0 -255.5 48.5t-200.5 130t-131.5 191t-47.5 232.5zM373 1366 l229 338l297 -164l-367 -258zM401 666q0 -39 6.5 -53.5t12.5 -30.5l307 231q-29 35 -62.5 47t-76.5 12q-41 0 -76 -18t-59.5 -47t-38 -65.5t-13.5 -75.5z" />
<glyph unicode="&#xea;" horiz-adv-x="1185" d="M-25 575q0 154 49.5 275t133.5 206t195.5 129t238.5 44q205 0 355.5 -104.5t223.5 -278.5l-612 -463q23 -12 59.5 -16.5t67.5 -4.5q92 0 157.5 34t119.5 81l202 -332q-125 -90 -256 -131t-301 -41q-139 0 -254.5 48.5t-199.5 130t-131.5 191t-47.5 232.5zM223 1415 l228 223h315l215 -237l-246 -103l-127 172l-127 -172zM403 670q0 -39 5.5 -53.5t11.5 -30.5l307 231q-29 35 -62.5 47.5t-76.5 12.5q-41 0 -75 -18.5t-58.5 -47.5t-38 -65.5t-13.5 -75.5z" />
<glyph unicode="&#xeb;" horiz-adv-x="1196" d="M-25 584q0 154 49.5 274.5t133.5 205.5t195.5 129t238.5 44q205 0 355.5 -104.5t223.5 -278.5l-612 -463q23 -12 59.5 -16t67.5 -4q92 0 157.5 33.5t119.5 80.5l202 -331q-125 -90 -256 -131t-301 -41q-139 0 -254.5 48t-199.5 130t-131.5 191.5t-47.5 232.5zM233 1608 l273 20l22 -219l-272 2zM403 678q0 -39 5.5 -53.5t11.5 -30.5l307 231q-29 35 -62.5 47.5t-76.5 12.5q-41 0 -75 -18.5t-58.5 -47t-38 -65.5t-13.5 -76zM666 1608l272 20l23 -219l-273 2z" />
<glyph unicode="&#xee;" horiz-adv-x="673" d="M-57 1407l227 223h315l215 -237l-245 -103l-127 172l-127 -172zM127 -16l412 36l32 1182l-444 -37v-1181z" />
<glyph unicode="&#xef;" horiz-adv-x="661" d="M-45 1591l272 21l23 -219l-270 2zM115 -16l411 36l33 1182l-444 -37v-1181zM387 1591l272 21l23 -219l-270 2z" />
<glyph unicode="&#xf4;" horiz-adv-x="1247" d="M-23 506q20 -141 86 -250t164.5 -177.5t222 -95t261.5 -8.5q137 18 248.5 79t187.5 154t109.5 215t13.5 263t-86 249.5t-164 177.5t-222 95.5t-261 8.5t-249 -79t-187.5 -154t-109.5 -215t-14 -263zM244 1415l229 223h313l218 -237l-248 -103l-125 172l-129 -172z M410 512q-35 78 0.5 149.5t132.5 112.5q96 41 172 15.5t108 -103.5q35 -80 -1 -150.5t-132 -111.5t-170.5 -16.5t-109.5 104.5z" />
<glyph unicode="&#xf7;" horiz-adv-x="1636" d="M47 551l19 215l1519 65l-20 -251zM514 177q10 42 39 81t74 71.5t102 51.5q57 20 113.5 22.5t102.5 -11t80 -41t46 -66.5q14 -39 4 -81t-38.5 -81t-73.5 -72t-103 -51q-57 -20 -113.5 -22.5t-102.5 11t-80 40t-46 67.5q-14 39 -4 81zM599 1160q9 42 39 81t75 72t102 51 q57 20 113.5 22.5t102.5 -11t80 -41t46 -66.5q14 -39 4 -81t-38.5 -81t-73.5 -72t-103 -51q-57 -20 -113.5 -22.5t-102.5 11t-80 40t-48 67.5q-12 39 -3 81z" />
<glyph unicode="&#xf9;" horiz-adv-x="1212" d="M61 332q0 -86 26 -153.5t71 -113t108.5 -69t139.5 -23.5q117 0 203.5 47.5t127.5 161.5h4v-190l379 18l29 1219l-469 -37l12 -723q0 -51 -25.5 -70.5t-66.5 -19.5q-47 0 -70.5 20.5t-23.5 71.5l12 758l-457 -37v-860zM299 1556l297 164l229 -338l-161 -84z" />
<glyph unicode="&#xfb;" horiz-adv-x="1185" d="M47 336q0 -174 95.5 -266.5t248.5 -92.5q117 0 204 47.5t128 161.5h4v-190l377 18l31 1219l-471 -37l12 -723q2 -51 -23.5 -70.5t-66.5 -19.5q-49 0 -73 20.5t-21 71.5l12 758l-457 -37v-860zM209 1432l227 223h316l215 -238l-246 -102l-127 172l-127 -172z" />
<glyph unicode="&#xff;" horiz-adv-x="1001" d="M-59 1169l385 -1007l-176 -484l464 -36l437 1546l-422 37l-101 -451h-4l-137 451zM133 1595l275 21l22 -219l-272 2zM565 1595l275 21l22 -219l-272 2z" />
<glyph unicode="&#x152;" horiz-adv-x="2142" d="M-41 628.5q-12 151.5 20.5 292t106.5 265.5t178.5 226t235.5 175t276 111q88 23 171 24.5t157 -11.5t137.5 -41t116.5 -64l786 63l-63 -520l-545 -21l10 -98l389 27l-41 -359l-372 -28l-2 -113l614 55l-12 -563l-1030 -59v24q-129 -59 -283 -78.5t-299 12.5t-270 122 t-199 254q-70 153 -82 304.5zM455 690q-2 -98 27.5 -159.5t75.5 -91t105.5 -33t118 17t109.5 60.5t86 94q51 80 74.5 147.5t28.5 124.5t-5 105.5t-28 84.5q-31 66 -87.5 94.5t-122 24.5t-133 -39t-123 -95t-91 -145.5t-35.5 -189.5z" />
<glyph unicode="&#x153;" horiz-adv-x="1992" d="M-33 596q0 143 50.5 260t137.5 199t205.5 126t257.5 44q152 0 253.5 -35t189.5 -94q74 45 171 87t226 42q106 0 194.5 -27t160 -76t131 -120.5t112.5 -159.5l-641 -461q27 -10 57.5 -16.5t77.5 -6.5q92 0 165 28t132 65l185 -322q-113 -78 -240 -119t-293 -41 q-123 0 -236.5 33t-203.5 107q-84 -66 -197.5 -103t-243.5 -37q-139 0 -257.5 44t-205.5 126t-137.5 198t-50.5 259zM442 596q0 -88 48.5 -139t127.5 -51q82 0 129.5 51t47.5 139q0 86 -47.5 137t-129.5 51q-80 0 -128 -51t-48 -137zM1251 680q0 -49 21 -84l311 219 q-23 23 -52.5 40t-78.5 17q-92 0 -146.5 -57t-54.5 -135z" />
<glyph unicode="&#x178;" horiz-adv-x="1519" d="M-84 1360l516 -723v-602l551 -74l6 590l625 809l-502 342l-393 -569l-363 569zM403 1880l338 25l35 -164q-35 -4 -89 -8t-107.5 -7.5t-92.5 -3.5q-37 0 -36 4l-7 30q-6 30 -41 124zM866 1769l4 162l320 70l20 -184q-160 -18 -252 -33z" />
<glyph unicode="&#x2000;" horiz-adv-x="1228" />
<glyph unicode="&#x2001;" horiz-adv-x="2459" />
<glyph unicode="&#x2002;" horiz-adv-x="1228" />
<glyph unicode="&#x2003;" horiz-adv-x="2459" />
<glyph unicode="&#x2004;" horiz-adv-x="819" />
<glyph unicode="&#x2005;" horiz-adv-x="614" />
<glyph unicode="&#x2006;" horiz-adv-x="409" />
<glyph unicode="&#x2007;" horiz-adv-x="409" />
<glyph unicode="&#x2008;" horiz-adv-x="307" />
<glyph unicode="&#x2009;" horiz-adv-x="491" />
<glyph unicode="&#x200a;" horiz-adv-x="135" />
<glyph unicode="&#x2010;" horiz-adv-x="933" d="M135 590l19 235l649 29l-21 -274z" />
<glyph unicode="&#x2011;" horiz-adv-x="933" d="M135 590l19 235l649 29l-21 -274z" />
<glyph unicode="&#x2012;" horiz-adv-x="933" d="M135 590l19 235l649 29l-21 -274z" />
<glyph unicode="&#x2013;" horiz-adv-x="1024" d="M135 580v274h758v-274h-758z" />
<glyph unicode="&#x2014;" horiz-adv-x="1931" d="M14 551l39 387l1317 47l-39 -424z" />
<glyph unicode="&#x2019;" horiz-adv-x="522" d="M111 1604l172 413l157 -129l-243 -313z" />
<glyph unicode="&#x201c;" horiz-adv-x="878" d="M70 1868l157 129l172 -414l-86 -29zM362 1868l158 129l172 -414l-86 -29z" />
<glyph unicode="&#x201d;" horiz-adv-x="854" d="M164 1583l172 414l158 -129l-244 -314zM457 1583l170 414l157 -129l-241 -314z" />
<glyph unicode="&#x2026;" horiz-adv-x="1345" d="M979 63l14 175l215 -13l-41 -215zM531 63l14 175l215 -13l-41 -215zM82 63l14 175l215 -13l-41 -215z" />
<glyph unicode="&#x202f;" horiz-adv-x="491" />
<glyph unicode="&#x205f;" horiz-adv-x="614" />
<glyph unicode="&#x2122;" horiz-adv-x="2875" d="M979 252l520 1520l502 -633l483 499l502 -1380l-494 -403l-223 665l-278 -487l-336 516l-199 -606zM-6 1108l14 504l1106 94l-53 -487l-246 -29v-1153l-582 -72l31 1170z" />
<glyph unicode="&#xe000;" horiz-adv-x="1225" d="M0 1225h1225v-1225h-1225v1225z" />
<glyph unicode="&#xfb01;" horiz-adv-x="1476" d="M930 1307l2 372l469 21l-25 -361zM934 -20v1181l457 37l-23 -1182zM25 827l65 353h76q0 111 28.5 200.5t87 152t148.5 97.5t215 35q35 0 62.5 -5t58.5 -9l53 -340h-69q-68 0 -104 -35t-36 -96h176v-353h-176l13 -811l-459 -36l2 847h-141z" />
<glyph unicode="&#xfb02;" horiz-adv-x="1464" d="M924 1628l463 37l-19 -1649l-430 -36zM25 827l65 353h76q0 111 28.5 200.5t87 152t148.5 97.5t215 35q35 0 62.5 -5t58.5 -9l53 -340h-69q-68 0 -104 -35t-36 -96h176v-353h-176l13 -811l-459 -36l2 847h-141z" />
<glyph unicode="&#xfb03;" horiz-adv-x="2328" d="M1782 1307l2 372l469 21l-25 -361zM1786 -20v1181l457 37l-23 -1182zM877 827l65 353h76q0 111 28.5 200.5t87 152t148.5 97.5t215 35q35 0 62.5 -5t58.5 -9l53 -340h-69q-68 0 -104 -35t-36 -96h176v-353h-176l13 -811l-459 -36l2 847h-141zM25 827l65 353h76 q0 111 28.5 200.5t87 152t148.5 97.5t215 35q35 0 62.5 -5t58.5 -9l53 -340h-69q-68 0 -104 -35t-36 -96h176v-353h-176l13 -811l-459 -36l2 847h-141z" />
<glyph unicode="&#xfb04;" horiz-adv-x="2316" d="M1776 1628l463 37l-19 -1649l-430 -36zM877 827l65 353h76q0 111 28.5 200.5t87 152t148.5 97.5t215 35q35 0 62.5 -5t58.5 -9l53 -340h-69q-68 0 -104 -35t-36 -96h176v-353h-176l13 -811l-459 -36l2 847h-141zM25 827l65 353h76q0 111 28.5 200.5t87 152t148.5 97.5 t215 35q35 0 62.5 -5t58.5 -9l53 -340h-69q-68 0 -104 -35t-36 -96h176v-353h-176l13 -811l-459 -36l2 847h-141z" />
</font>
</defs>
</svg>
